HIERARCHY
ROOT Hips
{
	OFFSET 0.00 0.00 0.00
	CHANNELS 6 Xposition Yposition Zposition Xrotation Yrotation Zrotation
	JOINT LeftUpLeg
	{
		OFFSET 3.34202 0.00000 0.00000
		CHANNELS 3 Xrotation Yrotation Zrotation
		JOINT LeftLeg
		{
			OFFSET 0.00000 -16.59631 0.00000
			CHANNELS 3 Xrotation Yrotation Zrotation
			JOINT LeftFoot
			{
				OFFSET 0.00000 -16.13662 0.00000
				CHANNELS 3 Xrotation Yrotation Zrotation
				JOINT LeftToeBase
				{
					OFFSET 0.00000 -1.70046 6.34620
					CHANNELS 3 Xrotation Yrotation Zrotation
					End Site
					{
						OFFSET 0.00000 0.00000 2.95275
					}
				}
			}
		}
	}
	JOINT RightUpLeg
	{
		OFFSET -3.34202 0.00000 0.00000
		CHANNELS 3 Xrotation Yrotation Zrotation
		JOINT RightLeg
		{
			OFFSET 0.00000 -16.59631 0.00000
			CHANNELS 3 Xrotation Yrotation Zrotation
			JOINT RightFoot
			{
				OFFSET 0.00000 -16.13662 0.00000
				CHANNELS 3 Xrotation Yrotation Zrotation
				JOINT RightToeBase
				{
					OFFSET 0.00000 -1.70046 6.34620
					CHANNELS 3 Xrotation Yrotation Zrotation
					End Site
					{
						OFFSET 0.00000 0.00000 2.95275
					}
				}
			}
		}
	}
	JOINT Spine
	{
		OFFSET 0.00000 0.03937 0.00000
		CHANNELS 3 Xrotation Yrotation Zrotation
		JOINT Spine1
		{
			OFFSET 0.00000 9.25793 0.00000
			CHANNELS 3 Xrotation Yrotation Zrotation
			JOINT Neck
			{
				OFFSET 0.00000 8.81471 0.00000
				CHANNELS 3 Xrotation Yrotation Zrotation
				JOINT Head
				{
					OFFSET 0.00000 6.89495 0.00000
					CHANNELS 3 Xrotation Yrotation Zrotation
					End Site
					{
						OFFSET 0.00000 4.52755 0.00000
					}
				}
			}
			JOINT LeftShoulder
			{
				OFFSET 0.00000 8.81471 0.00000
				CHANNELS 3 Xrotation Yrotation Zrotation
				JOINT LeftArm
				{
					OFFSET 7.31164 -0.00003 0.00000
					CHANNELS 3 Xrotation Yrotation Zrotation
					JOINT LeftForeArm
					{
						OFFSET 10.81844 -0.00004 0.00000
						CHANNELS 3 Xrotation Yrotation Zrotation
						JOINT LeftHand
						{
							OFFSET 10.19478 -0.00004 0.00000
							CHANNELS 3 Xrotation Yrotation Zrotation
							JOINT LeftHandThumb
							{
								OFFSET 0.00000 0.00000 0.00000
								CHANNELS 3 Xrotation Yrotation Zrotation
								End Site
								{
									OFFSET 0.00000 0.00000 3.93700
								}
							}
							JOINT L_Wrist_End
							{
								OFFSET 3.93700 -0.00001 0.00000
								CHANNELS 3 Xrotation Yrotation Zrotation
							}
						}
					}
				}
			}
			JOINT RightShoulder
			{
				OFFSET 0.00000 8.81471 0.00000
				CHANNELS 3 Xrotation Yrotation Zrotation
				JOINT RightArm
				{
					OFFSET -7.31164 -0.00003 0.00000
					CHANNELS 3 Xrotation Yrotation Zrotation
					JOINT RightForeArm
					{
						OFFSET -10.81844 -0.00004 0.00000
						CHANNELS 3 Xrotation Yrotation Zrotation
						JOINT RightHand
						{
							OFFSET -10.19478 -0.00004 0.00000
							CHANNELS 3 Xrotation Yrotation Zrotation
							JOINT RightHandThumb
							{
								OFFSET 0.00000 0.00000 0.00000
								CHANNELS 3 Xrotation Yrotation Zrotation
								End Site
								{
									OFFSET 0.00000 0.00000 3.93700
								}
							}
							JOINT R_Wrist_End
							{
								OFFSET -5.39369 -0.00002 0.00000
								CHANNELS 3 Xrotation Yrotation Zrotation
							}
						}
					}
				}
			}
		}
	}
}
MOTION
Frames: 9
Frame Time: 0.008333
 36.9522 6.9534 -22.0919 23.5638 -0.7145 78.9149 -91.5805 -0.0596 -3.0705 118.6829 -0.0000 0.0000 -2.2380 15.8089 33.0573 -23.2067 0.0000 0.0000 -16.1900 6.4654 9.8735 50.9070 -0.0000 0.0000 -30.4405 5.0675 -0.4323 -17.8183 0.0000 -0.0000 2.1014 -2.8808 -1.6247 -8.2983 -9.1087 -21.9867 32.5309 -12.6951 5.4899 -34.4282 10.8465 20.4788 -12.4559 -6.6631 18.3713 -81.8668 -55.3724 -124.2191 -0.0004 -61.8499 -0.0002 41.5672 -7.7666 60.8547 0.0000 -0.0000 -0.0000 0.0000 -0.0000 -0.0000 -24.7857 11.5808 -23.3825 -15.0596 0.0797 40.3407 -0.0035 86.5338 0.0033 42.7060 -3.6402 -9.4919 -0.0000 -0.0000 -0.0000 -0.0000 -0.0000 -0.0000
 36.9430 6.9971 -22.0419 24.1983 -0.9251 79.0080 -91.2970 -0.1044 -3.0494 118.9115 -0.0000 0.0000 -2.9750 16.2826 32.1338 -22.9331 0.0000 0.0000 -15.9972 6.5724 9.7191 50.5855 -0.0000 -0.0000 -30.3139 4.5973 -1.1043 -17.6540 0.0000 0.0000 2.0736 -2.8244 -1.5648 -8.4013 -9.1328 -21.7765 32.3782 -12.7567 5.5060 -34.6412 10.7283 20.6258 -12.4365 -6.4716 18.3832 -80.4758 -55.3821 -123.0786 -0.0004 -62.5772 -0.0002 41.6862 -7.6489 60.4581 -0.0000 0.0000 0.0000 -0.0000 0.0000 0.0000 -24.9659 11.7661 -23.5053 -15.3259 0.7463 40.8518 -0.0033 86.3473 0.0031 42.9534 -3.6011 -9.4470 -0.0000 0.0000 -0.0000 -0.0000 0.0000 -0.0000
 36.9338 7.0469 -21.9884 24.8824 -1.1417 79.1116 -90.9764 -0.2274 -2.9992 119.1106 -0.0000 0.0000 -3.7286 16.5075 31.2980 -22.6397 0.0000 0.0000 -15.8147 6.6921 9.5317 50.3367 -0.0000 -0.0000 -30.1345 4.5491 -1.8621 -17.4032 0.0000 0.0000 2.0932 -2.6935 -1.5107 -8.5529 -9.0967 -21.5410 32.2094 -12.9184 5.5913 -34.7136 10.6785 20.7208 -12.4466 -6.4588 18.3900 -78.8769 -55.3541 -121.8393 -0.0004 -63.3804 -0.0003 41.7262 -7.6666 60.0272 -0.0000 0.0000 -0.0000 -0.0000 0.0000 -0.0000 -25.1671 11.9131 -23.6456 -15.5139 1.3869 41.3530 -0.0032 86.1984 0.0030 43.1792 -3.6095 -9.4242 -0.0000 -0.0000 -0.0000 -0.0000 -0.0000 -0.0000
 36.9279 7.1007 -21.9244 25.5170 -1.3636 79.2089 -90.5812 -0.3590 -3.0640 119.3191 0.0000 -0.0000 -4.9062 16.6445 30.6109 -20.1567 0.0000 -0.0000 -15.6191 6.8404 9.3821 50.1925 -0.0000 -0.0000 -29.9374 4.7529 -2.7961 -16.4177 -0.0000 -0.0000 2.0285 -2.6764 -1.4101 -8.5998 -9.1463 -21.3279 31.8752 -12.8701 5.5385 -34.6786 10.5421 20.8684 -12.3024 -6.1979 18.4219 -77.6276 -55.4491 -120.6497 -0.0004 -64.2773 -0.0003 41.3920 -6.5952 59.4704 -0.0000 0.0000 0.0000 -0.0000 0.0000 0.0000 -25.1359 12.0880 -23.7545 -16.0202 1.9735 41.8057 -0.0031 86.1331 0.0029 43.2376 -3.8440 -9.3630 0.0000 -0.0000 0.0000 0.0000 -0.0000 0.0000
 36.9174 7.1560 -21.8634 26.2776 -1.5562 79.3017 -90.2297 -0.5338 -2.9805 119.3953 -0.0000 0.0000 -5.6507 16.8408 29.7774 -20.0212 0.0000 -0.0000 -15.4490 6.8804 9.1910 50.0178 -0.0000 -0.0000 -29.6262 5.0022 -3.6184 -16.4117 -0.0000 0.0000 2.0647 -2.4850 -1.3778 -8.8296 -9.0887 -21.0081 31.6698 -12.9930 5.6399 -34.5740 10.4222 20.9461 -12.2175 -6.2678 18.4125 -75.8758 -55.3360 -119.2831 -0.0005 -65.1213 -0.0003 41.4527 -6.6674 59.3297 0.0000 0.0000 -0.0000 0.0000 0.0000 -0.0000 -25.1264 12.1891 -23.8711 -16.3744 2.5634 42.1850 -0.0030 86.0413 0.0028 43.2687 -3.8251 -9.4582 0.0000 -0.0000 0.0000 0.0000 -0.0000 0.0000
 36.9018 7.2180 -21.7893 26.9823 -1.7896 79.4273 -89.8123 -0.6410 -2.9494 119.4171 -0.0000 0.0000 -6.2501 17.0859 28.9303 -20.0345 0.0000 -0.0000 -15.2004 6.9936 8.9654 49.8463 -0.0000 0.0000 -29.3885 5.0929 -4.1506 -16.5804 0.0000 0.0000 2.0531 -2.4198 -1.3046 -8.9464 -9.1038 -20.7841 31.5134 -13.0968 5.7256 -34.7604 10.3380 21.1395 -12.1336 -6.1152 18.4618 -74.2907 -55.2541 -117.9961 -0.0005 -66.0088 -0.0003 41.3716 -6.9775 59.1491 -0.0000 0.0000 -0.0000 -0.0000 0.0000 -0.0000 -25.1956 12.3690 -23.9032 -16.7727 3.1456 42.6088 -0.0030 85.9464 0.0028 43.1758 -3.7086 -9.6022 -0.0000 -0.0000 -0.0000 -0.0000 -0.0000 -0.0000
 36.8816 7.2787 -21.7112 27.6748 -2.0247 79.5552 -89.4211 -0.6070 -2.7084 119.4248 0.0000 0.0000 -6.7329 17.2213 28.1946 -20.0747 0.0000 -0.0000 -14.9527 7.1349 8.7310 49.7052 -0.0000 -0.0000 -29.0625 5.3148 -4.7350 -16.8768 -0.0000 0.0000 2.0770 -2.3009 -1.2630 -9.0845 -9.0846 -20.5046 31.3967 -13.2320 5.8478 -34.9572 10.2393 21.3472 -12.0763 -6.1614 18.4870 -72.4162 -55.0915 -116.5622 -0.0005 -66.9968 -0.0003 41.2407 -7.2976 59.0073 -0.0000 0.0000 0.0000 -0.0000 0.0000 0.0000 -25.2757 12.5117 -23.9705 -17.0767 3.7376 42.9986 -0.0029 85.8555 0.0027 43.2099 -3.7174 -9.6325 0.0000 0.0000 -0.0000 0.0000 0.0000 -0.0000
 36.8595 7.3425 -21.6393 28.3413 -2.2015 79.6681 -89.1259 -0.4188 -2.2342 119.4398 0.0000 0.0000 -7.0993 17.2630 27.1670 -20.0903 0.0000 0.0000 -14.7936 7.2658 8.4982 49.6020 -0.0000 0.0000 -28.5650 5.6603 -5.5946 -17.2981 0.0000 -0.0000 2.1913 -2.1543 -1.2409 -9.3712 -9.0819 -20.1448 31.2633 -13.3308 5.9472 -35.1541 10.0857 21.5557 -12.1040 -6.3087 18.4753 -70.3214 -54.8529 -115.1026 -0.0005 -68.0889 -0.0004 41.0727 -7.4709 58.8263 -0.0000 0.0000 0.0000 -0.0000 0.0000 0.0000 -25.4093 12.6010 -24.0866 -17.3197 4.3968 43.4207 -0.0028 85.7481 0.0026 43.2538 -3.7311 -9.6005 -0.0000 0.0000 -0.0000 -0.0000 0.0000 -0.0000
 36.8335 7.4080 -21.5658 28.9250 -2.3312 79.8055 -88.8577 -0.1426 -1.7259 119.4170 -0.0000 0.0000 -7.2818 17.2600 25.9025 -20.1366 0.0000 0.0000 -14.6578 7.3447 8.1940 49.5132 -0.0000 0.0000 -28.0177 6.1013 -6.6033 -17.6033 0.0000 0.0000 2.1959 -2.0962 -1.2492 -9.5440 -9.1525 -19.7869 31.2197 -13.5607 6.1350 -35.5041 10.1175 21.7301 -12.0576 -6.4164 18.4611 -68.2505 -54.6519 -113.5147 -0.0006 -69.2534 -0.0004 40.7087 -7.7419 58.6250 0.0000 -0.0000 0.0000 0.0000 -0.0000 0.0000 -25.5556 12.6797 -24.1280 -17.6273 5.1603 43.8039 -0.0027 85.5912 0.0025 43.4013 -3.7919 -9.5825 -0.0000 -0.0000 0.0000 -0.0000 -0.0000 0.0000
